<svg xmlns="http://www.w3.org/2000/svg" width="100" height="30.037" viewBox="0 0 100 30.037">
  <g id="logo" transform="translate(-185.389 -227.111)">
    <rect id="Rectangle_54" data-name="Rectangle 54" width="100" height="30.037" transform="translate(185.389 227.111)" fill="rgba(0,255,255,0.93)" opacity="0"/>
    <g id="Group_27" data-name="Group 27" transform="translate(185.749 227.138)">
      <g id="Group_20" data-name="Group 20" transform="translate(0 0.012)">
        <rect id="Rectangle_55" data-name="Rectangle 55" width="0.855" height="29.984" fill="#1a1818"/>
        <path id="Path_31" data-name="Path 31" d="M232.305,227.294v11.65H227.1v-11.65h-.855v11.65h-9.682v-11.65h-.855v29.984h.855V245.895h9.682v11.384h.855V245.895h5.206v11.384h.855V227.294Zm0,17.741H216.563l0-5.231h15.739Z" transform="translate(-209.64 -227.294)" fill="#1a1818"/>
      </g>
      <path id="Path_32" data-name="Path 32" d="M351.523,229.769a14.7,14.7,0,0,0-8.6-2.526H335.73v-.006h-.855v29.984h.855V234.156h5.206v23.065h.855V245.845h1.344c8.126,0,11.764-4.48,11.764-8.92V235.6A7.414,7.414,0,0,0,351.523,229.769Zm-7.812,4.386c3.064,0,4.212,1.52,4.252,2.578-.045,1.5-1.481,2.351-3.956,2.351h-2.215v-4.929Zm10.333,2.77c0,4.012-3.373,8.06-10.908,8.06h-1.344v-5.041h2.215c4.238,0,4.766-2.264,4.809-3.153l0-.131h0c-.1-2.209-2.616-3.364-5.106-3.364h-7.98V228.1h7.191c6.87,0,11.122,3.89,11.122,7.495Z" transform="translate(-303.352 -227.237)" fill="#1a1818"/>
      <g id="Group_25" data-name="Group 25" transform="translate(59.221 0.061)">
        <g id="Group_23" data-name="Group 23" transform="translate(0.163 10.359)">
          <g id="Group_21" data-name="Group 21">
            <rect id="Rectangle_56" data-name="Rectangle 56" width="0.855" height="19.548" fill="#1a1818"/>
          </g>
          <g id="Group_22" data-name="Group 22" transform="translate(6.061)">
            <rect id="Rectangle_57" data-name="Rectangle 57" width="0.855" height="19.564" fill="#1a1818"/>
          </g>
        </g>
        <g id="Group_24" data-name="Group 24">
          <path id="Path_33" data-name="Path 33" d="M472.237,231.159a3.635,3.635,0,1,1-3.635-3.635A3.635,3.635,0,0,1,472.237,231.159Z" transform="translate(-464.967 -227.524)" fill="#1a1818"/>
        </g>
      </g>
      <g id="Group_26" data-name="Group 26" transform="translate(72.885 0.012)">
        <path id="Path_34" data-name="Path 34" d="M528.6,227.294l9.2,15.252-8.768,14.732h.989l8.28-13.9,3.1,5.145-5.161,8.755h.987l4.677-7.922,4.776,7.922h1.016L529.64,227.294Z" transform="translate(-528.598 -227.294)" fill="#1a1818"/>
        <path id="Path_35" data-name="Path 35" d="M582.973,227.294h-1L573.2,241.64l-3.1-5.2,5.469-9.146h-1.014L569.6,235.6l-4.956-8.31h-1l17.875,29.984h1L573.7,242.471Z" transform="translate(-556.218 -227.294)" fill="#1a1818"/>
      </g>
    </g>
  </g>
</svg>
